<svg width="24" height="38" viewBox="0 0 24 38" fill="none" xmlns="http://www.w3.org/2000/svg">
<path fill-rule="evenodd" clip-rule="evenodd" d="M12.2842 7.79094C12.5855 7.79094 12.8745 7.91063 13.0875 8.12369C13.3006 8.33675 13.4203 8.62572 13.4203 8.92703V13.4714C13.4203 13.7727 13.3006 14.0617 13.0875 14.2748C12.8745 14.4878 12.5855 14.6075 12.2842 14.6075C11.9829 14.6075 11.6939 14.4878 11.4809 14.2748C11.2678 14.0617 11.1481 13.7727 11.1481 13.4714V8.92703C11.1481 8.62572 11.2678 8.33675 11.4809 8.12369C11.6939 7.91063 11.9829 7.79094 12.2842 7.79094ZM21.373 25.9685V12.3353C21.373 9.92483 20.4154 7.61307 18.7109 5.90859C17.0065 4.20412 14.6947 3.24656 12.2842 3.24656C9.87372 3.24656 7.56197 4.20412 5.8575 5.90859C4.15303 7.61307 3.19547 9.92483 3.19547 12.3353V25.9685C3.19547 28.3789 4.15303 30.6907 5.8575 32.3952C7.56197 34.0997 9.87372 35.0572 12.2842 35.0572C14.6947 35.0572 17.0065 34.0997 18.7109 32.3952C20.4154 30.6907 21.373 28.3789 21.373 25.9685ZM12.2842 0.974365C9.2711 0.974365 6.38141 2.17132 4.25082 4.30191C2.12023 6.4325 0.923279 9.3222 0.923279 12.3353V25.9685C0.923279 28.9816 2.12023 31.8713 4.25082 34.0019C6.38141 36.1325 9.2711 37.3294 12.2842 37.3294C15.2973 37.3294 18.187 36.1325 20.3176 34.0019C22.4482 31.8713 23.6451 28.9816 23.6451 25.9685V12.3353C23.6451 9.3222 22.4482 6.4325 20.3176 4.30191C18.187 2.17132 15.2973 0.974365 12.2842 0.974365V0.974365Z" fill="white"/>
</svg>
